<mxfile host="app.diagrams.net" modified="2022-05-09T12:39:33.171Z" agent="5.0 (Windows NT 10.0; Win64; x64) AppleWebKit/537.36 (KHTML, like Gecko) Chrome/101.0.4951.54 Safari/537.36" etag="4VSXI2a5HPrT2H5IUrJw" version="17.5.0" type="github">
  <diagram id="GiDy7QdgVwkjVTAb7hje" name="Page-1">
    <mxGraphModel dx="2578" dy="1331" grid="1" gridSize="10" guides="0" tooltips="1" connect="1" arrows="1" fold="1" page="1" pageScale="1" pageWidth="2336" pageHeight="1654" math="0" shadow="0">
      <root>
        <mxCell id="0" />
        <mxCell id="1" parent="0" />
        <mxCell id="wHACfdn4kOPyqrjDQe8m-25" value="" style="rounded=0;whiteSpace=wrap;html=1;labelBackgroundColor=#000000;fontFamily=Times New Roman;fontSize=16;fontColor=#FFFFFF;strokeColor=#000000;" parent="1" vertex="1">
          <mxGeometry x="33" y="320" width="2180" height="940" as="geometry" />
        </mxCell>
        <mxCell id="PkXmXj4e4-Y02CVKX3bn-3" value="" style="rounded=1;whiteSpace=wrap;html=1;" parent="1" vertex="1">
          <mxGeometry x="1920" y="420" width="240" height="180" as="geometry" />
        </mxCell>
        <mxCell id="PkXmXj4e4-Y02CVKX3bn-1" value="" style="shape=image;html=1;verticalAlign=top;verticalLabelPosition=bottom;labelBackgroundColor=#ffffff;imageAspect=0;aspect=fixed;image=https://cdn0.iconfinder.com/data/icons/phosphor-regular-vol-1/256/airplane-in-flight-128.png" parent="1" vertex="1">
          <mxGeometry x="2090" y="440" width="38" height="38" as="geometry" />
        </mxCell>
        <mxCell id="PkXmXj4e4-Y02CVKX3bn-4" value="&lt;b&gt;&lt;font style=&quot;font-size: 19px&quot; face=&quot;Times New Roman&quot;&gt;&lt;u&gt;Flight Gear&lt;/u&gt;&lt;/font&gt;&lt;/b&gt;" style="text;html=1;resizable=0;autosize=1;align=center;verticalAlign=middle;points=[];fillColor=none;strokeColor=none;rounded=0;" parent="1" vertex="1">
          <mxGeometry x="1980" y="476" width="110" height="20" as="geometry" />
        </mxCell>
        <mxCell id="PkXmXj4e4-Y02CVKX3bn-5" value="&lt;span&gt;client&lt;/span&gt;" style="rounded=0;whiteSpace=wrap;html=1;fontFamily=Times New Roman;fontSize=19;fillColor=#1ba1e2;strokeColor=#006EAF;fontColor=#ffffff;" parent="1" vertex="1">
          <mxGeometry x="1930" y="516" width="110" height="30" as="geometry" />
        </mxCell>
        <mxCell id="PkXmXj4e4-Y02CVKX3bn-6" value="server" style="rounded=0;whiteSpace=wrap;html=1;fontFamily=Times New Roman;fontSize=19;fillColor=#60a917;strokeColor=#2D7600;fontColor=#ffffff;" parent="1" vertex="1">
          <mxGeometry x="2040" y="516" width="110" height="30" as="geometry" />
        </mxCell>
        <mxCell id="PkXmXj4e4-Y02CVKX3bn-12" value="" style="rounded=0;whiteSpace=wrap;html=1;fontFamily=Times New Roman;fontSize=19;" parent="1" vertex="1">
          <mxGeometry x="1320" y="480" width="400" height="660" as="geometry" />
        </mxCell>
        <mxCell id="PkXmXj4e4-Y02CVKX3bn-13" value="&lt;font face=&quot;Times New Roman&quot; size=&quot;1&quot;&gt;&lt;b&gt;&lt;u style=&quot;font-size: 27px&quot;&gt;Model&lt;/u&gt;&lt;/b&gt;&lt;/font&gt;" style="text;html=1;resizable=0;autosize=1;align=center;verticalAlign=middle;points=[];fillColor=none;strokeColor=none;rounded=0;" parent="1" vertex="1">
          <mxGeometry x="1490" y="486" width="90" height="30" as="geometry" />
        </mxCell>
        <mxCell id="PkXmXj4e4-Y02CVKX3bn-14" value="" style="rounded=0;whiteSpace=wrap;html=1;fontFamily=Times New Roman;fontSize=19;" parent="1" vertex="1">
          <mxGeometry x="730" y="489" width="430" height="660" as="geometry" />
        </mxCell>
        <mxCell id="PkXmXj4e4-Y02CVKX3bn-15" value="&lt;font face=&quot;Times New Roman&quot; size=&quot;1&quot;&gt;&lt;b&gt;&lt;u style=&quot;font-size: 27px&quot;&gt;Controller&lt;/u&gt;&lt;/b&gt;&lt;/font&gt;" style="text;html=1;resizable=0;autosize=1;align=center;verticalAlign=middle;points=[];fillColor=none;strokeColor=none;rounded=0;" parent="1" vertex="1">
          <mxGeometry x="870" y="491" width="140" height="30" as="geometry" />
        </mxCell>
        <mxCell id="PkXmXj4e4-Y02CVKX3bn-16" value="" style="rounded=0;whiteSpace=wrap;html=1;fontFamily=Times New Roman;fontSize=19;" parent="1" vertex="1">
          <mxGeometry x="130" y="489" width="460" height="660" as="geometry" />
        </mxCell>
        <mxCell id="PkXmXj4e4-Y02CVKX3bn-17" value="&lt;font face=&quot;Times New Roman&quot; size=&quot;1&quot;&gt;&lt;b&gt;&lt;u style=&quot;font-size: 27px&quot;&gt;View&lt;/u&gt;&lt;/b&gt;&lt;/font&gt;" style="text;html=1;resizable=0;autosize=1;align=center;verticalAlign=middle;points=[];fillColor=none;strokeColor=none;rounded=0;" parent="1" vertex="1">
          <mxGeometry x="325" y="491" width="70" height="30" as="geometry" />
        </mxCell>
        <mxCell id="PkXmXj4e4-Y02CVKX3bn-19" value="&lt;font style=&quot;font-size: 16px&quot;&gt;analytics server&lt;/font&gt;" style="rounded=0;whiteSpace=wrap;html=1;fontFamily=Times New Roman;fontSize=19;rotation=0;fillColor=#1ba1e2;fontColor=#ffffff;strokeColor=#006EAF;" parent="1" vertex="1">
          <mxGeometry x="1626.89" y="516" width="79.68" height="60.31" as="geometry" />
        </mxCell>
        <mxCell id="5SUfc0cTOBRWJ5BxjfDS-31" style="edgeStyle=orthogonalEdgeStyle;rounded=0;orthogonalLoop=1;jettySize=auto;html=1;exitX=0.75;exitY=0;exitDx=0;exitDy=0;fontSize=19;fontColor=#FFFFFF;" parent="1" source="PkXmXj4e4-Y02CVKX3bn-20" target="5SUfc0cTOBRWJ5BxjfDS-5" edge="1">
          <mxGeometry relative="1" as="geometry" />
        </mxCell>
        <mxCell id="PkXmXj4e4-Y02CVKX3bn-20" value="" style="rounded=0;whiteSpace=wrap;html=1;fontFamily=Times New Roman;fontSize=19;rotation=90;fillColor=#60a917;fontColor=#ffffff;strokeColor=#2D7600;" parent="1" vertex="1">
          <mxGeometry x="1346.25" y="661.25" width="232.5" height="255" as="geometry" />
        </mxCell>
        <mxCell id="PkXmXj4e4-Y02CVKX3bn-27" value="&lt;font face=&quot;Times New Roman&quot; color=&quot;#ffffff&quot; size=&quot;1&quot;&gt;&lt;b&gt;&lt;u style=&quot;font-size: 26px&quot;&gt;client&lt;/u&gt;&lt;/b&gt;&lt;/font&gt;" style="text;html=1;resizable=0;autosize=1;align=center;verticalAlign=middle;points=[];fillColor=none;strokeColor=none;rounded=0;" parent="1" vertex="1">
          <mxGeometry x="1430" y="790" width="80" height="20" as="geometry" />
        </mxCell>
        <mxCell id="PkXmXj4e4-Y02CVKX3bn-38" value="&lt;font style=&quot;font-size: 17px&quot;&gt;tcp&lt;/font&gt;" style="text;html=1;resizable=0;autosize=1;align=center;verticalAlign=middle;points=[];fillColor=none;strokeColor=none;rounded=0;fontFamily=Times New Roman;fontSize=19;fontColor=#000000;" parent="1" vertex="1">
          <mxGeometry x="1738" y="847" width="40" height="30" as="geometry" />
        </mxCell>
        <mxCell id="PkXmXj4e4-Y02CVKX3bn-39" value="&lt;font style=&quot;font-size: 16px&quot;&gt;tcp&lt;/font&gt;" style="text;html=1;resizable=0;autosize=1;align=center;verticalAlign=middle;points=[];fillColor=none;strokeColor=none;rounded=0;fontFamily=Times New Roman;fontSize=19;fontColor=#000000;" parent="1" vertex="1">
          <mxGeometry x="1881" y="506" width="40" height="30" as="geometry" />
        </mxCell>
        <mxCell id="PkXmXj4e4-Y02CVKX3bn-52" value="&lt;font style=&quot;font-size: 18px&quot;&gt;Instructions&lt;/font&gt;" style="text;html=1;resizable=0;autosize=1;align=center;verticalAlign=middle;points=[];fillColor=none;strokeColor=none;rounded=0;fontFamily=Times New Roman;fontSize=19;fontColor=#000000;" parent="1" vertex="1">
          <mxGeometry x="1860" y="820" width="100" height="30" as="geometry" />
        </mxCell>
        <mxCell id="PkXmXj4e4-Y02CVKX3bn-53" value="&lt;b&gt;&lt;u&gt;&lt;br&gt;&lt;/u&gt;&lt;/b&gt;" style="text;html=1;resizable=0;autosize=1;align=center;verticalAlign=middle;points=[];fillColor=none;strokeColor=none;rounded=0;fontFamily=Times New Roman;fontSize=18;fontColor=#000000;" parent="1" vertex="1">
          <mxGeometry x="1500" y="836" width="20" height="30" as="geometry" />
        </mxCell>
        <mxCell id="PkXmXj4e4-Y02CVKX3bn-58" value="&lt;br&gt;&lt;br&gt;&lt;br&gt;" style="rounded=0;whiteSpace=wrap;html=1;fontFamily=Times New Roman;fontSize=19;fillColor=#60a917;fontColor=#ffffff;strokeColor=#FFFFFF;" parent="1" vertex="1">
          <mxGeometry x="1347" y="734" width="230" height="160" as="geometry" />
        </mxCell>
        <mxCell id="PkXmXj4e4-Y02CVKX3bn-59" value="&lt;u&gt;&lt;b&gt;API&lt;/b&gt;&lt;/u&gt;" style="text;html=1;resizable=0;autosize=1;align=center;verticalAlign=middle;points=[];fillColor=none;strokeColor=none;rounded=0;fontFamily=Times New Roman;fontSize=19;fontColor=#FFFFFF;" parent="1" vertex="1">
          <mxGeometry x="1439" y="679" width="50" height="30" as="geometry" />
        </mxCell>
        <mxCell id="PkXmXj4e4-Y02CVKX3bn-63" value="&lt;ul&gt;&lt;li&gt;&lt;span&gt;aileron(:float)&lt;/span&gt;&lt;/li&gt;&lt;li&gt;&lt;span&gt;elevator(:float)&lt;/span&gt;&lt;/li&gt;&lt;li&gt;&lt;span&gt;rudder(:float)&lt;/span&gt;&lt;/li&gt;&lt;li&gt;&lt;span&gt;throttle(:float)&lt;/span&gt;&lt;/li&gt;&lt;li&gt;&lt;span&gt;breaks(:float)&lt;/span&gt;&lt;/li&gt;&lt;li&gt;&lt;span&gt;getFlight():TimeSeries&amp;nbsp;&lt;/span&gt;&lt;/li&gt;&lt;/ul&gt;" style="text;html=1;resizable=0;autosize=1;align=left;verticalAlign=middle;points=[];fillColor=none;strokeColor=none;rounded=0;fontFamily=Times New Roman;fontSize=19;fontColor=#FFFFFF;" parent="1" vertex="1">
          <mxGeometry x="1340" y="715" width="230" height="180" as="geometry" />
        </mxCell>
        <mxCell id="PkXmXj4e4-Y02CVKX3bn-66" value="&lt;b&gt;&lt;font style=&quot;font-size: 18px&quot;&gt;Symbol table&lt;/font&gt;&lt;/b&gt;" style="rounded=0;whiteSpace=wrap;html=1;fontFamily=Times New Roman;fontSize=16;strokeColor=#10739e;fillColor=#b1ddf0;" parent="1" vertex="1">
          <mxGeometry x="1350" y="620" width="120" height="26" as="geometry" />
        </mxCell>
        <mxCell id="PkXmXj4e4-Y02CVKX3bn-67" value="&lt;b&gt;&lt;font style=&quot;font-size: 18px&quot;&gt;Time Series&lt;/font&gt;&lt;/b&gt;" style="rounded=0;whiteSpace=wrap;html=1;fontFamily=Times New Roman;fontSize=16;strokeColor=#10739e;fillColor=#b1ddf0;" parent="1" vertex="1">
          <mxGeometry x="1350" y="580" width="120" height="30" as="geometry" />
        </mxCell>
        <mxCell id="wHACfdn4kOPyqrjDQe8m-2" value="&lt;b&gt;&lt;br&gt;&lt;/b&gt;" style="rounded=0;whiteSpace=wrap;html=1;fontSize=15;fillColor=#60a917;fontColor=#ffffff;strokeColor=#2D7600;" parent="1" vertex="1">
          <mxGeometry x="170" y="536" width="360" height="410" as="geometry" />
        </mxCell>
        <mxCell id="wHACfdn4kOPyqrjDQe8m-4" value="&lt;b&gt;&lt;font style=&quot;font-size: 20px&quot; color=&quot;#ffffff&quot;&gt;Local CLI&lt;/font&gt;&lt;br&gt;&lt;/b&gt;" style="text;html=1;resizable=0;autosize=1;align=center;verticalAlign=middle;points=[];fillColor=none;strokeColor=none;rounded=0;fontSize=15;" parent="1" vertex="1">
          <mxGeometry x="287" y="541" width="110" height="30" as="geometry" />
        </mxCell>
        <mxCell id="wHACfdn4kOPyqrjDQe8m-7" value="&lt;font style=&quot;font-size: 19px&quot; face=&quot;Times New Roman&quot;&gt;• shutdown()&lt;br&gt;• reset()&lt;br&gt;• print_stream()&lt;br&gt;• aileron(:float)&lt;br&gt;• elevator(:float)&lt;br&gt;• rudder(:float)&lt;br&gt;• throttle(:float)&lt;br&gt;• Etc&lt;/font&gt;" style="rounded=0;whiteSpace=wrap;html=1;fontSize=27;align=left;fillColor=#60a917;fontColor=#ffffff;strokeColor=#FFFFFF;" parent="1" vertex="1">
          <mxGeometry x="210" y="606" width="280" height="270" as="geometry" />
        </mxCell>
        <mxCell id="wHACfdn4kOPyqrjDQe8m-20" value="&lt;font style=&quot;font-size: 21px&quot;&gt;&lt;b&gt;Performs analytics&lt;/b&gt;&lt;br&gt;&lt;div style=&quot;text-align: left&quot;&gt;&lt;ul&gt;&lt;li&gt;&lt;span style=&quot;font-size: 19px&quot;&gt;&lt;font style=&quot;font-size: 21px&quot;&gt;start&amp;amp; end times&amp;nbsp;&lt;/font&gt;&lt;/span&gt;&lt;/li&gt;&lt;li&gt;&lt;span style=&quot;font-size: 19px&quot;&gt;&lt;font style=&quot;font-size: 21px&quot;&gt;From-to&lt;/font&gt;&lt;/span&gt;&lt;/li&gt;&lt;li&gt;&lt;span style=&quot;font-size: 19px&quot;&gt;&lt;font style=&quot;font-size: 21px&quot;&gt;Max alititude&lt;/font&gt;&lt;/span&gt;&lt;/li&gt;&lt;li&gt;&lt;span style=&quot;font-size: 19px&quot;&gt;&lt;font style=&quot;font-size: 21px&quot;&gt;Max speed&lt;/font&gt;&lt;/span&gt;&lt;/li&gt;&lt;/ul&gt;&lt;/div&gt;&lt;br&gt;&lt;/font&gt;" style="text;html=1;resizable=0;autosize=1;align=center;verticalAlign=middle;points=[];rounded=0;fontFamily=Times New Roman;fontSize=19;fillColor=#fad7ac;strokeColor=#b46504;" parent="1" vertex="1">
          <mxGeometry x="770" y="660" width="200" height="190" as="geometry" />
        </mxCell>
        <mxCell id="wHACfdn4kOPyqrjDQe8m-21" value="&lt;u&gt;&lt;b&gt;Handles remote instructions&lt;/b&gt;&lt;/u&gt;" style="text;html=1;resizable=0;autosize=1;align=center;verticalAlign=middle;points=[];fillColor=#fad7ac;strokeColor=#b46504;rounded=0;fontFamily=Times New Roman;fontSize=21;" parent="1" vertex="1">
          <mxGeometry x="770" y="880" width="270" height="30" as="geometry" />
        </mxCell>
        <mxCell id="wHACfdn4kOPyqrjDQe8m-23" value="" style="endArrow=classic;startArrow=classic;html=1;rounded=0;fontFamily=Times New Roman;fontSize=27;entryX=0;entryY=0.485;entryDx=0;entryDy=0;entryPerimeter=0;" parent="1" edge="1">
          <mxGeometry width="50" height="50" relative="1" as="geometry">
            <mxPoint x="590" y="788" as="sourcePoint" />
            <mxPoint x="730" y="788.1000000000001" as="targetPoint" />
          </mxGeometry>
        </mxCell>
        <mxCell id="wHACfdn4kOPyqrjDQe8m-24" value="" style="endArrow=classic;startArrow=classic;html=1;rounded=0;fontFamily=Times New Roman;fontSize=27;exitX=1;exitY=0.5;exitDx=0;exitDy=0;entryX=0;entryY=0.5;entryDx=0;entryDy=0;" parent="1" edge="1">
          <mxGeometry width="50" height="50" relative="1" as="geometry">
            <mxPoint x="1160" y="783" as="sourcePoint" />
            <mxPoint x="1330" y="783" as="targetPoint" />
          </mxGeometry>
        </mxCell>
        <mxCell id="5SUfc0cTOBRWJ5BxjfDS-13" style="edgeStyle=orthogonalEdgeStyle;rounded=0;orthogonalLoop=1;jettySize=auto;html=1;exitX=0;exitY=0.5;exitDx=0;exitDy=0;fontSize=16;" parent="1" source="5SUfc0cTOBRWJ5BxjfDS-4" target="PkXmXj4e4-Y02CVKX3bn-66" edge="1">
          <mxGeometry relative="1" as="geometry">
            <Array as="points">
              <mxPoint x="1627" y="633" />
            </Array>
          </mxGeometry>
        </mxCell>
        <mxCell id="5SUfc0cTOBRWJ5BxjfDS-4" value="&lt;font style=&quot;font-size: 16px&quot;&gt;flight DATA server&lt;/font&gt;" style="rounded=0;whiteSpace=wrap;html=1;fontFamily=Times New Roman;fontSize=19;rotation=0;fillColor=#1ba1e2;fontColor=#ffffff;strokeColor=#006EAF;" parent="1" vertex="1">
          <mxGeometry x="1626.56" y="586" width="80" height="60" as="geometry" />
        </mxCell>
        <mxCell id="5SUfc0cTOBRWJ5BxjfDS-12" style="edgeStyle=orthogonalEdgeStyle;rounded=0;orthogonalLoop=1;jettySize=auto;html=1;exitX=1;exitY=0.5;exitDx=0;exitDy=0;entryX=0.5;entryY=1;entryDx=0;entryDy=0;fontSize=16;" parent="1" source="5SUfc0cTOBRWJ5BxjfDS-5" target="PkXmXj4e4-Y02CVKX3bn-6" edge="1">
          <mxGeometry relative="1" as="geometry" />
        </mxCell>
        <mxCell id="5SUfc0cTOBRWJ5BxjfDS-5" value="&lt;font style=&quot;font-size: 16px&quot;&gt;remote server&lt;/font&gt;" style="rounded=0;whiteSpace=wrap;html=1;fontFamily=Times New Roman;fontSize=19;rotation=0;fillColor=#1ba1e2;fontColor=#ffffff;strokeColor=#006EAF;" parent="1" vertex="1">
          <mxGeometry x="1650" y="817" width="63.68" height="60.31" as="geometry" />
        </mxCell>
        <mxCell id="5SUfc0cTOBRWJ5BxjfDS-15" style="edgeStyle=orthogonalEdgeStyle;rounded=0;orthogonalLoop=1;jettySize=auto;html=1;exitX=0.5;exitY=0;exitDx=0;exitDy=0;fontSize=44;fontColor=#000000;" parent="1" source="5SUfc0cTOBRWJ5BxjfDS-14" edge="1">
          <mxGeometry relative="1" as="geometry">
            <mxPoint x="1074.5" y="139.99999999999977" as="targetPoint" />
          </mxGeometry>
        </mxCell>
        <mxCell id="5SUfc0cTOBRWJ5BxjfDS-14" value="Controller" style="html=1;labelBackgroundColor=none;fontSize=44;fillColor=#dae8fc;gradientColor=#7ea6e0;strokeColor=#6c8ebf;" parent="1" vertex="1">
          <mxGeometry x="910" y="290" width="330" height="60" as="geometry" />
        </mxCell>
        <mxCell id="5SUfc0cTOBRWJ5BxjfDS-16" value="&lt;font style=&quot;font-size: 20px&quot;&gt;HTTP/socket?&lt;/font&gt;" style="rounded=0;whiteSpace=wrap;html=1;labelBackgroundColor=none;fontSize=44;fontColor=#000000;" parent="1" vertex="1">
          <mxGeometry x="1080" y="240" width="250" height="30" as="geometry" />
        </mxCell>
        <mxCell id="5SUfc0cTOBRWJ5BxjfDS-17" value="&lt;font style=&quot;font-size: 12px&quot;&gt;thread&amp;nbsp;&lt;/font&gt;" style="text;html=1;resizable=0;autosize=1;align=center;verticalAlign=middle;points=[];fillColor=none;strokeColor=none;rounded=0;labelBackgroundColor=none;fontSize=20;fontColor=#000000;" parent="1" vertex="1">
          <mxGeometry x="1640" y="490" width="50" height="30" as="geometry" />
        </mxCell>
        <mxCell id="5SUfc0cTOBRWJ5BxjfDS-18" value="&lt;font style=&quot;font-size: 12px&quot;&gt;thread&amp;nbsp;&lt;/font&gt;" style="text;html=1;resizable=0;autosize=1;align=center;verticalAlign=middle;points=[];fillColor=none;strokeColor=none;rounded=0;labelBackgroundColor=none;fontSize=20;fontColor=#000000;" parent="1" vertex="1">
          <mxGeometry x="1642" y="638" width="50" height="30" as="geometry" />
        </mxCell>
        <mxCell id="5SUfc0cTOBRWJ5BxjfDS-19" value="&lt;font style=&quot;font-size: 12px&quot;&gt;thread&amp;nbsp;&lt;/font&gt;" style="text;html=1;resizable=0;autosize=1;align=center;verticalAlign=middle;points=[];fillColor=none;strokeColor=none;rounded=0;labelBackgroundColor=none;fontSize=20;fontColor=#000000;" parent="1" vertex="1">
          <mxGeometry x="1645" y="870" width="50" height="30" as="geometry" />
        </mxCell>
        <mxCell id="5SUfc0cTOBRWJ5BxjfDS-20" value="Front-end Instructions" style="text;html=1;resizable=0;autosize=1;align=center;verticalAlign=middle;points=[];fillColor=none;strokeColor=none;rounded=0;labelBackgroundColor=none;fontSize=12;fontColor=#FFFFFF;" parent="1" vertex="1">
          <mxGeometry x="1399" y="701" width="130" height="20" as="geometry" />
        </mxCell>
        <mxCell id="5SUfc0cTOBRWJ5BxjfDS-21" value="&lt;font style=&quot;font-size: 19px&quot;&gt;&lt;sup&gt;Connection to the server&lt;/sup&gt;&lt;/font&gt;" style="html=1;labelBackgroundColor=none;fontSize=44;fillColor=#dae8fc;gradientColor=#7ea6e0;strokeColor=#6c8ebf;align=center;" parent="1" vertex="1">
          <mxGeometry x="780" y="530" width="330" height="40" as="geometry" />
        </mxCell>
        <mxCell id="5SUfc0cTOBRWJ5BxjfDS-22" value="&lt;b&gt;Streams flight data&amp;nbsp;&amp;nbsp;&lt;/b&gt;" style="text;html=1;resizable=0;autosize=1;align=center;verticalAlign=middle;points=[];fillColor=#fad7ac;strokeColor=#b46504;rounded=0;fontFamily=Times New Roman;fontSize=21;" parent="1" vertex="1">
          <mxGeometry x="770" y="610" width="200" height="30" as="geometry" />
        </mxCell>
        <mxCell id="5SUfc0cTOBRWJ5BxjfDS-23" value="Debugging tool" style="text;html=1;resizable=0;autosize=1;align=center;verticalAlign=middle;points=[];fillColor=none;strokeColor=none;rounded=0;labelBackgroundColor=none;fontSize=12;fontColor=#FFFFFF;" parent="1" vertex="1">
          <mxGeometry x="290" y="570" width="100" height="20" as="geometry" />
        </mxCell>
        <mxCell id="5SUfc0cTOBRWJ5BxjfDS-33" style="edgeStyle=orthogonalEdgeStyle;rounded=0;orthogonalLoop=1;jettySize=auto;html=1;exitX=1;exitY=0.5;exitDx=0;exitDy=0;entryX=0;entryY=0.5;entryDx=0;entryDy=0;fontSize=19;fontColor=#FFFFFF;" parent="1" source="5SUfc0cTOBRWJ5BxjfDS-29" target="5SUfc0cTOBRWJ5BxjfDS-5" edge="1">
          <mxGeometry relative="1" as="geometry" />
        </mxCell>
        <mxCell id="5SUfc0cTOBRWJ5BxjfDS-29" value="Local CLI&amp;nbsp;" style="rounded=0;whiteSpace=wrap;html=1;fontSize=15;fillColor=#60a917;fontColor=#ffffff;strokeColor=#2D7600;" parent="1" vertex="1">
          <mxGeometry x="1325" y="938" width="270" height="30" as="geometry" />
        </mxCell>
        <mxCell id="5SUfc0cTOBRWJ5BxjfDS-35" value="&lt;font face=&quot;Times New Roman&quot; style=&quot;font-size: 12px&quot;&gt;send data&lt;/font&gt;" style="rounded=0;whiteSpace=wrap;html=1;labelBackgroundColor=none;fontSize=19;fillColor=#1ba1e2;strokeColor=#006EAF;fontColor=#ffffff;" parent="1" vertex="1">
          <mxGeometry x="780" y="570" width="160" height="20" as="geometry" />
        </mxCell>
        <mxCell id="5SUfc0cTOBRWJ5BxjfDS-36" value="&lt;font face=&quot;Times New Roman&quot; style=&quot;font-size: 12px&quot;&gt;&lt;b&gt;get instructions&lt;/b&gt;&lt;/font&gt;" style="rounded=0;whiteSpace=wrap;html=1;labelBackgroundColor=none;fontSize=19;fillColor=#008a00;strokeColor=#005700;fontColor=#ffffff;" parent="1" vertex="1">
          <mxGeometry x="940" y="570" width="170" height="20" as="geometry" />
        </mxCell>
        <mxCell id="5SUfc0cTOBRWJ5BxjfDS-38" style="edgeStyle=orthogonalEdgeStyle;rounded=0;orthogonalLoop=1;jettySize=auto;html=1;exitX=0;exitY=0.5;exitDx=0;exitDy=0;entryX=1;entryY=0.5;entryDx=0;entryDy=0;fontFamily=Times New Roman;fontSize=12;fontColor=#FFFFFF;" parent="1" source="PkXmXj4e4-Y02CVKX3bn-5" target="PkXmXj4e4-Y02CVKX3bn-19" edge="1">
          <mxGeometry relative="1" as="geometry" />
        </mxCell>
        <mxCell id="5SUfc0cTOBRWJ5BxjfDS-39" style="edgeStyle=orthogonalEdgeStyle;rounded=0;orthogonalLoop=1;jettySize=auto;html=1;exitX=0;exitY=0.5;exitDx=0;exitDy=0;entryX=1;entryY=0.5;entryDx=0;entryDy=0;fontFamily=Times New Roman;fontSize=12;fontColor=#FFFFFF;" parent="1" source="PkXmXj4e4-Y02CVKX3bn-5" target="5SUfc0cTOBRWJ5BxjfDS-4" edge="1">
          <mxGeometry relative="1" as="geometry" />
        </mxCell>
      </root>
    </mxGraphModel>
  </diagram>
</mxfile>
